<mxfile host="app.diagrams.net" modified="2023-10-16T02:27:18.101Z" agent="Mozilla/5.0 (X11; Linux x86_64) AppleWebKit/537.36 (KHTML, like Gecko) Chrome/118.0.0.0 Safari/537.36" version="21.2.3" etag="fRvbdcEY9EZs4PHa3z5Q" type="github">
  <diagram name="Page-1" id="utaP_1HAc_C9-aqUsBzb">
    <mxGraphModel>
      <root>
        <mxCell id="0" />
        <mxCell id="1" parent="0" />
      </root>
    </mxGraphModel>
  </diagram>
</mxfile>
